<svg xmlns="http://www.w3.org/2000/svg" xmlns:xlink="http://www.w3.org/1999/xlink" viewBox="0 0 128 128"><linearGradient id="A" x1="64" x2="64" y1="19.717" y2="107.7" gradientUnits="userSpaceOnUse"><stop stop-color="#fee133" offset=".5"/><stop stop-color="#fede32" offset=".612"/><stop stop-color="#fcd32f" offset=".708"/><stop stop-color="#fac12b" offset=".798"/><stop stop-color="#f7a924" offset=".883"/><stop stop-color="#f6a323" offset=".9"/></linearGradient><path d="M64 119.9c-27.93 0-58-17.5-58-55.9S36.07 8.1 64 8.1c15.48 0 29.8 5.12 40.36 14.43C115.9 32.72 122 47.06 122 64c0 16.86-6.1 31.17-17.64 41.4-10.58 9.35-24.9 14.5-40.36 14.5z" fill="url(#A)"/><path d="M64 10.1c15 0 28.86 4.95 39.03 13.93C114.13 33.83 120 47.65 120 64c0 16.27-5.87 30.07-16.97 39.9-10.2 9.03-24.07 14-39.03 14-15.04 0-28.9-4.9-39.04-13.82C13.86 94.32 8 80.46 8 64c0-16.54 5.86-30.42 16.96-40.15C35.07 15 48.93 10.1 64 10.1m0-4C32.85 6.1 4 26.1 4 64c0 37.68 28.85 57.9 60 57.9s60-20.73 60-57.9c0-37.37-28.85-57.9-60-57.9z" fill="#eb8f00"/><defs><path id="B" d="M63.47 62.53c-15.7 0-30.3-1.32-42.5-3.57-3.02-.56-5.7 2.1-5.08 5.1 4.04 19.8 23.55 36.08 47.55 36.08 26.27 0 43.94-16.8 47.6-36.15.57-3-2.1-5.6-5.1-5.04-12.18 2.25-26.78 3.57-42.5 3.57z"/></defs><clipPath id="C"><use xlink:href="#B"/></clipPath><path d="M63.47 62.53c-15.7 0-30.3-1.32-42.5-3.57-3.02-.56-5.7 2.1-5.08 5.1 4.04 19.8 23.55 36.08 47.55 36.08 26.27 0 43.94-16.8 47.6-36.15.57-3-2.1-5.6-5.1-5.04-12.18 2.25-26.78 3.57-42.5 3.57z" clip-path="url(#C)" fill="#242424"/><path d="M116.72 61.38V46.5H10.24v14.9C26.6 71 44.6 76.35 63.48 76.35s36.86-5.35 53.24-14.97z" clip-path="url(#C)" fill="#fff"/><path d="M63.48 86.42c-11.78 0-22.05 6.42-27.53 15.95 7.12 3.9 16.83 6.3 27.53 6.3s20.4-2.4 27.53-6.3c-5.48-9.53-15.75-15.95-27.53-15.95z" clip-path="url(#C)" fill="#ed7770"/><g clip-path="url(#C)"><defs><path id="D" d="M10.24 46.5v14.9C26.62 71 44.6 76.35 63.48 76.35s36.86-5.35 53.24-14.97V46.5H10.24zm53.24 39.93c-11.78 0-22.05 6.42-27.53 15.95 7.12 3.9 16.83 6.3 27.53 6.3 10.7 0 20.4-2.4 27.53-6.3-5.48-9.53-15.75-15.95-27.53-15.95z"/></defs><clipPath id="E"><use xlink:href="#D"/></clipPath><g clip-path="url(#E)"><path d="M106.8 63.1c.07 0 .14.07.14.12-1.68 8.85-6.6 16.96-13.85 22.84-7.97 6.46-18.2 9.88-29.63 9.88-10.46 0-20.64-3.45-28.67-9.72-7.72-6.03-12.96-14.2-14.76-23.02.01-.02.07-.1.18-.1h.01c12.86 2.38 27.82 3.64 43.26 3.64s30.4-1.26 43.28-3.65c.01.01.03.01.04.01m0-4.2a3.71 3.71 0 0 0-.81.08c-12.18 2.26-26.8 3.58-42.5 3.58-15.7 0-30.3-1.32-42.5-3.57-.27-.05-.54-.08-.8-.08-2.67 0-4.83 2.44-4.27 5.18 4.04 19.8 23.55 36.08 47.55 36.08 26.27 0 43.94-16.8 47.6-36.15.52-2.72-1.63-5.12-4.27-5.12z" fill="#eb8f00"/></g></g><path d="M83.65 23.62c3.8 0 7.26 5.64 7.26 15s-3.46 15-7.26 15-7.26-5.64-7.26-15 3.46-15 7.26-15zm-39.38 0c-4.06 0-7.74 5.64-7.74 15s3.7 15 7.74 15c4.06 0 7.74-5.64 7.74-15s-3.68-15-7.74-15z" fill="#242424"/></svg>