<svg xmlns="http://www.w3.org/2000/svg" viewBox="0 0 128 128"><linearGradient id="A" x1="64" x2="64" y1="19.717" y2="107.7" gradientUnits="userSpaceOnUse"><stop stop-color="#fee133" offset=".5"/><stop stop-color="#fede32" offset=".612"/><stop stop-color="#fcd32f" offset=".708"/><stop stop-color="#fac12b" offset=".798"/><stop stop-color="#f7a924" offset=".883"/><stop stop-color="#f6a323" offset=".9"/></linearGradient><path d="M64 119.9c-27.93 0-58-17.5-58-55.9S36.07 8.1 64 8.1c15.48 0 29.8 5.12 40.36 14.43C115.9 32.72 122 47.06 122 64c0 16.86-6.1 31.17-17.64 41.4-10.58 9.35-24.9 14.5-40.36 14.5z" fill="url(#A)"/><path d="M64 10.1c15 0 28.86 4.95 39.03 13.93C114.13 33.83 120 47.65 120 64c0 16.27-5.87 30.07-16.97 39.9-10.2 9.03-24.07 14-39.03 14-15.04 0-28.9-4.9-39.04-13.82C13.86 94.32 8 80.46 8 64c0-16.54 5.86-30.42 16.96-40.15C35.07 15 48.93 10.1 64 10.1m0-4C32.85 6.1 4 26.1 4 64c0 37.68 28.85 57.9 60 57.9s60-20.73 60-57.9c0-37.37-28.85-57.9-60-57.9z" fill="#eb8f00"/><g fill="#242424"><path stroke="#404040" stroke-linecap="round" stroke-linejoin="round" stroke-miterlimit="10" stroke-width="8" d="M39 84h50"/><path d="M82.77 45.53c4.2 0 8 3.54 8 9.42s-3.8 9.42-8 9.42-8-3.54-8-9.42 3.8-9.42 8-9.42zm-37.54 0c-4.2 0-8 3.54-8 9.42s3.8 9.42 8 9.42 8-3.54 8-9.42-3.8-9.42-8-9.42z"/></g></svg>