<svg xmlns="http://www.w3.org/2000/svg" xmlns:xlink="http://www.w3.org/1999/xlink" viewBox="0 0 128 128"><linearGradient id="A" x1="64" x2="64" y1="19.717" y2="107.7" gradientUnits="userSpaceOnUse"><stop stop-color="#f6a323" offset=".566"/><stop stop-color="#fee133" offset=".917"/></linearGradient><path d="M64 119.9c-27.93 0-58-17.5-58-55.9S36.07 8.1 64 8.1c15.48 0 29.8 5.12 40.36 14.43C115.9 32.72 122 47.06 122 64c0 16.86-6.1 31.17-17.64 41.4-10.58 9.35-24.9 14.5-40.36 14.5z" fill="url(#A)"/><path d="M64 10.1c15 0 28.86 4.95 39.03 13.93C114.13 33.83 120 47.65 120 64c0 16.27-5.87 30.07-16.97 39.9-10.2 9.03-24.07 14-39.03 14-15.04 0-28.9-4.9-39.04-13.82C13.86 94.32 8 80.46 8 64c0-16.54 5.86-30.42 16.96-40.15C35.07 15 48.93 10.1 64 10.1m0-4C32.85 6.1 4 26.1 4 64c0 37.68 28.85 57.9 60 57.9s60-20.73 60-57.9c0-37.37-28.85-57.9-60-57.9z" fill="#eb8f00"/><defs><path id="B" d="M37.64 97.1c2.96 4.36 8.73 5.74 13.36 3.24 3.9-2.1 8.32-3.3 13-3.3s9.1 1.2 13 3.3c4.64 2.5 10.4 1.1 13.36-3.24 2.14-3.15 2.33-7.22.56-10.6C85.44 76.06 75.44 69.07 64 69.07s-21.44 7-26.92 17.43c-1.77 3.38-1.58 7.44.56 10.6z"/></defs><clipPath id="C"><use xlink:href="#B"/></clipPath><path d="M37.64 97.1c2.96 4.36 8.73 5.74 13.36 3.24 3.9-2.1 8.32-3.3 13-3.3s9.1 1.2 13 3.3c4.64 2.5 10.4 1.1 13.36-3.24 2.14-3.15 2.33-7.22.56-10.6C85.44 76.06 75.44 69.07 64 69.07s-21.44 7-26.92 17.43c-1.77 3.38-1.58 7.44.56 10.6z" clip-path="url(#C)" fill="#242424"/><g clip-path="url(#C)" opacity=".6"><path d="M66.37 74.15c0 4.4-.4 5.74 1.64 9.9H68c.34.7.55 1.46.55 2.28a5.21 5.21 0 1 1-10.42 0c0-.82.2-1.6.55-2.28h-.02c2.02-4.16 1.64-5.58 1.64-9.9-8.2 1.44-14.43 8.58-14.43 17.2a17.49 17.49 0 0 0 17.48 17.48 17.48 17.48 0 0 0 17.47-17.48c0-8.62-6.24-15.76-14.44-17.2z"/></g><path d="M48.37 22.74c.05-.01.1-.01.14-.02 2.18-.3 2.4-3.5-.04-3.66-1.9-.1-3.88.12-5.84.63-5.4 1.4-9.84 4.87-12.38 9.04-1.24 2.1 1.55 3.75 3 2.1 3.76-4.13 9.16-7.16 15.12-8.1zm31.26 0c-.05-.01-.1-.01-.14-.02-2.18-.3-2.4-3.5.04-3.66 1.9-.1 3.88.12 5.84.63 5.4 1.4 9.84 4.87 12.38 9.04 1.24 2.1-1.55 3.75-3 2.1-3.76-4.13-9.16-7.16-15.12-8.1z" fill="#6d4c41"/><path d="M35.88 122.34c-9.46 0-15.5-3.3-15.5-5.6 0-.14.04-.3.12-.53a2.01 2.01 0 0 0-.06-1.56c-.23-.5-.65-.86-1.16-1.04-2.73-.93-3.73-2.1-3.73-2.65 0-1.2 3.73-3.6 10.57-3.76 1.06-.02 1.9-.95 1.95-2l2.4-62.2h10.66l2.74 67.5c.03.85.6 1.63 1.42 1.87 4.17 1.26 6.07 3.15 6.07 4.35 0 2.28-6.04 5.63-15.5 5.63z" fill="#5f7aff"/><path d="M39.22 45l2.66 65.57c.07 1.7 1.2 3.2 2.84 3.7 2.95.9 4.2 1.98 4.57 2.44-.86 1.17-5.48 3.6-13.4 3.6-8 0-12.62-2.45-13.43-3.6.3-.96.24-2-.2-2.92-.46-.98-1.3-1.73-2.33-2.08a9.98 9.98 0 0 1-1.73-.76c1.33-.76 4.1-1.67 7.97-1.75 2.1-.05 3.82-1.82 3.9-3.93L32.4 45H39m4.06-4h-14.5l-2.48 64.13c-6.98.16-12.52 2.73-12.52 5.8 0 1.84 2 3.5 5.08 4.56-.15.4-.25.82-.25 1.24 0 4.2 7.83 7.6 17.5 7.6s17.5-3.42 17.5-7.6c0-2.58-2.97-4.95-7.5-6.32L43.06 41z" fill="#4864ed"/><path d="M92.42 122.33c-9.46 0-15.5-3.32-15.5-5.6 0-1.2 1.9-3.06 6.07-4.33.8-.25 1.38-1.07 1.42-1.92L87.16 43h10.66l2.4 62.2c.04 1.06.9 1.94 1.95 1.96 6.84.16 10.57 2.6 10.57 3.8 0 .55-1 1.7-3.73 2.64-.5.17-.93.56-1.16 1.04a2.01 2.01 0 0 0-.06 1.56c.08.22.12.4.12.52 0 2.3-6.04 5.6-15.5 5.6z" fill="#5f7aff"/><path d="M95.9 45l2.33 60.3c.08 2.1 1.8 3.84 3.9 3.9 3.86.1 6.64 1.03 7.97 1.8a9.55 9.55 0 0 1-1.73.77c-1.02.35-1.86 1.1-2.33 2.08-.43.9-.5 1.96-.2 2.9-.8 1.16-5.45 3.6-13.43 3.6-7.92 0-12.54-2.42-13.4-3.6.37-.46 1.62-1.53 4.57-2.42 1.63-.5 2.77-2.05 2.84-3.75L89.08 45H96m3.74-4h-14.5l-2.82 69.4c-4.53 1.37-7.5 3.7-7.5 6.28 0 4.2 7.83 7.62 17.5 7.62s17.5-3.38 17.5-7.57c0-.42-.1-.82-.25-1.22 3.1-1.05 5.08-2.68 5.08-4.52 0-3.07-5.55-5.7-12.52-5.86L99.74 41z" fill="#4864ed"/><path d="M42.15 49.1l-.18-.22-.2-.27c-.1-.1-.18-.23-.26-.3l-.62-.62-.86-.8c-.64-.54-1.4-1.04-2.2-1.4-.8-.34-1.62-.53-2.45-.52h.03-.15l-.3.01c-.26 0-.2.02-.3.03-.07-.01-.35.06-.54.1-.4.1-.82.22-1.22.4a8.95 8.95 0 0 0-2.2 1.4c-.63.54-1.16 1.07-1.5 1.47l-.57.64-.3.34c-1.22 1.37-3.32 1.5-4.7.28-1.04-.92-1.36-2.36-.93-3.6l.1-.32c.08-.2.17-.53.35-.9.33-.78.9-1.87 1.82-3.08.9-1.2 2.25-2.5 4.03-3.54.9-.5 1.9-.96 2.97-1.25.56-.13 1.04-.26 1.74-.34l.87-.1.76-.04a14.12 14.12 0 0 1 3.37.47c1.08.28 2.07.75 2.97 1.25 1.78 1.03 3.12 2.33 4.03 3.54a13.12 13.12 0 0 1 1.13 1.7 12.06 12.06 0 0 1 .72 1.44l.2.5.2.6a3.37 3.37 0 0 1-2.17 4.24 3.41 3.41 0 0 1-3.66-1.11zm57.33 0l-.18-.22-.2-.27c-.1-.1-.18-.23-.26-.3l-.62-.62-.86-.8c-.64-.54-1.4-1.04-2.2-1.4-.8-.34-1.62-.53-2.45-.52h.03-.15l-.3.01c-.26 0-.2.02-.3.03-.07-.01-.35.06-.54.1-.4.1-.82.22-1.22.4a8.95 8.95 0 0 0-2.2 1.4c-.63.54-1.16 1.07-1.52 1.47l-.57.64-.3.34c-1.22 1.37-3.32 1.5-4.7.28-1.04-.92-1.36-2.36-.93-3.6l.1-.32c.08-.2.17-.53.35-.9.33-.78.9-1.87 1.82-3.08.9-1.2 2.25-2.5 4.03-3.54.9-.5 1.9-.96 2.97-1.25.56-.13 1.04-.26 1.74-.34l.87-.1.76-.04a14.12 14.12 0 0 1 3.37.47c1.08.28 2.07.75 2.97 1.25 1.78 1.03 3.12 2.33 4.03 3.54a13.12 13.12 0 0 1 1.13 1.7 12.06 12.06 0 0 1 .72 1.44l.2.5.2.6a3.37 3.37 0 0 1-2.17 4.24c-1.35.43-2.8-.06-3.65-1.1z" fill="#242424"/></svg>